<svg xmlns="http://www.w3.org/2000/svg" version="1.1" xmlns:xlink="http://www.w3.org/1999/xlink" xmlns:svgjs="http://svgjs.com/svgjs" width="1440" height="534" preserveAspectRatio="none" viewBox="0 0 1440 534"><g mask="url(&quot;#SvgjsMask1136&quot;)" fill="none"><rect width="1440" height="534" x="0" y="0" fill="rgba(32, 54, 116, 1)"></rect><path d="M0,642.149C127.389,644.147,258.533,637.811,367.946,572.536C479.177,506.177,587.209,405.987,609.67,278.427C631.538,154.234,498.329,55.75,480.933,-69.148C463.411,-194.956,588.682,-342.156,509.412,-441.408C431.147,-539.402,269.171,-481.242,144.128,-490.855C46.264,-498.379,-47.641,-508.347,-144.367,-491.669C-252.038,-473.103,-366.318,-460.616,-448.54,-388.662C-535.68,-312.404,-608.554,-202.987,-606.545,-87.208C-604.579,26.069,-478.505,94.246,-438.321,200.174C-393.767,317.62,-449.055,471.919,-360.603,561.109C-272.057,650.393,-125.731,640.177,0,642.149" fill="#1c3066"></path><path d="M1440 1121.434C1547.991 1113.03 1607.997 995.335 1695.119 930.973 1775.183 871.825 1874.9560000000001 840.409 1931.394 758.412 1993.701 667.888 2036.271 559.139 2026.384 449.69100000000003 2016.281 337.85 1964.258 225.99400000000003 1876.921 155.406 1794.106 88.47199999999998 1673.6390000000001 116.06099999999998 1572.476 82.82900000000001 1466.575 48.041 1381.435-52.803 1270.325-43.860000000000014 1153.897-34.48900000000003 1043.57 36.492999999999995 974.835 130.933 908.066 222.671 912.519 343.918 905.662 457.174 899.322 561.877 890.396 669.722 936.509 763.937 982.0419999999999 856.967 1073.566 912.808 1158.018 972.7719999999999 1246.4470000000001 1035.56 1331.874 1129.8490000000002 1440 1121.434" fill="#243d82"></path></g><defs><mask id="SvgjsMask1136"><rect width="1440" height="534" fill="#ffffff"></rect></mask></defs></svg>